<?xml version="1.0" standalone="no"?>
<!DOCTYPE svg PUBLIC "-//W3C//DTD SVG 20010904//EN"
 "http://www.w3.org/TR/2001/REC-SVG-20010904/DTD/svg10.dtd">
<svg version="1.0" xmlns="http://www.w3.org/2000/svg"
 width="640.000000pt" height="640.000000pt" viewBox="0 0 640.000000 640.000000"
 preserveAspectRatio="xMidYMid meet">
<metadata>
Created by potrace 1.11, written by Peter Selinger 2001-2013
</metadata>
<g transform="translate(0.000000,640.000000) scale(0.100000,-0.100000)"
fill="#000000" stroke="none">
<path d="M2732 6379 c-96 -49 -153 -164 -146 -296 5 -92 10 -112 94 -323 67
-167 77 -199 95 -295 12 -67 13 -134 1 -153 -15 -24 -49 -20 -76 9 -21 24 -30
48 -39 107 -23 149 -32 183 -60 214 -20 23 -38 31 -74 35 -42 5 -50 3 -71 -20
-50 -54 -46 -110 14 -208 97 -157 87 -245 -32 -299 -83 -38 -151 -22 -271 63
-81 58 -121 78 -182 92 -70 16 -148 10 -232 -16 -49 -16 -54 -25 -18 -39 34
-13 100 -81 124 -129 23 -45 37 -99 46 -186 15 -131 41 -207 93 -266 l31 -36
-30 -89 c-39 -111 -97 -306 -108 -359 -5 -22 -16 -73 -25 -112 -9 -40 -18 -87
-21 -105 -3 -18 -7 -44 -10 -58 -3 -14 -7 -38 -9 -55 -18 -120 -18 -120 -32
-255 -3 -36 -8 -141 -9 -235 -2 -148 -5 -176 -24 -215 -11 -25 -21 -59 -21
-76 0 -63 -126 -213 -245 -292 -39 -26 -41 -29 -32 -57 5 -17 14 -35 19 -42
26 -33 44 -84 42 -119 -4 -72 -34 -177 -79 -268 -56 -116 -61 -137 -40 -169
20 -31 117 -71 285 -118 25 -7 50 -14 55 -15 20 -6 201 -42 224 -46 20 -2 24
-9 26 -39 2 -31 -3 -43 -35 -73 -84 -79 -51 -189 69 -229 40 -13 139 -15 186
-4 11 3 41 11 67 17 46 12 47 12 102 -29 63 -47 103 -95 117 -142 15 -54 12
-226 -7 -366 -2 -18 -7 -57 -10 -85 -11 -103 -55 -299 -80 -361 -13 -35 -39
-79 -57 -97 -45 -45 -144 -104 -230 -136 -40 -14 -108 -42 -153 -60 -83 -35
-99 -38 -294 -49 -63 -4 -133 -8 -155 -10 -22 -3 -67 -7 -100 -10 -127 -12
-161 -16 -185 -20 -14 -2 -45 -7 -70 -10 -62 -9 -169 -33 -202 -46 -34 -14
-43 -38 -21 -55 20 -14 159 -49 238 -59 28 -3 64 -8 80 -10 58 -8 121 -14 195
-20 41 -4 95 -8 120 -11 74 -7 280 -18 570 -31 360 -16 1629 -8 1890 12 25 2
97 6 160 10 116 6 160 9 280 21 36 3 85 7 110 9 25 2 59 6 75 9 17 3 50 8 75
11 81 11 188 35 224 50 71 30 35 62 -99 91 -69 14 -182 32 -255 39 -19 2 -64
6 -100 10 -118 11 -276 23 -421 30 -50 2 -282 88 -369 137 -69 39 -95 68 -121
138 -55 146 -71 298 -72 670 -1 184 3 197 69 263 36 36 39 37 113 38 79 1 90
2 180 20 67 14 140 44 146 61 2 7 6 39 9 71 5 51 47 179 65 200 4 4 26 10 48
13 38 5 43 3 59 -23 49 -78 105 -100 168 -68 26 14 31 14 48 -2 27 -24 87 -22
124 4 21 15 35 19 45 12 41 -25 118 -2 161 50 25 29 25 29 76 16 73 -19 138 3
187 62 17 21 30 25 97 28 222 11 304 17 309 23 4 4 16 32 27 62 11 30 23 62
27 71 5 12 -33 41 -162 124 -92 59 -185 119 -205 132 -37 25 -37 25 -23 93 3
14 10 52 15 85 5 33 12 71 15 85 6 31 32 181 40 235 3 22 15 99 26 170 11 72
22 146 25 165 2 19 7 45 9 58 5 20 2 22 -42 23 -255 7 -492 -2 -648 -26 -16
-3 -48 -7 -70 -10 -22 -3 -50 -8 -62 -10 -19 -4 -24 1 -34 37 -6 24 -12 50
-14 58 -2 8 -10 42 -19 75 -9 33 -19 68 -21 77 -73 314 -304 898 -477 1206
l-24 43 37 39 c44 46 75 122 83 205 3 33 8 89 12 124 8 84 35 160 83 232 47
71 45 73 -69 74 -73 0 -160 -20 -160 -37 0 -4 -4 -8 -10 -8 -23 0 -107 -84
-160 -160 -51 -74 -74 -93 -111 -92 -45 1 -60 21 -63 83 -5 98 33 241 105 394
72 156 89 267 54 360 -22 56 -58 80 -122 80 -64 0 -99 -23 -131 -87 -36 -71
-41 -144 -27 -333 15 -184 5 -283 -34 -334 -35 -46 -98 -22 -102 39 -7 88 -2
170 16 259 32 159 -11 281 -99 281 -36 0 -44 -5 -74 -44 -20 -26 -23 -40 -21
-110 1 -45 5 -94 10 -111 25 -94 46 -259 37 -284 -18 -51 -66 -59 -93 -17 -7
11 -16 55 -19 96 -8 101 -37 218 -80 317 -71 166 -69 259 6 404 55 107 56 179
3 229 -34 32 -91 36 -143 9z m-842 -3904 c15 -67 22 -109 23 -140 1 -26 -2
-30 -38 -38 -39 -9 -182 -3 -192 7 -3 3 4 30 17 60 15 37 26 53 35 49 14 -5
67 68 102 142 l17 36 14 -38 c7 -21 17 -56 22 -78z m1016 -1061 c16 -4 82 -7
147 -7 l117 0 1 -36 c1 -20 3 -54 5 -76 6 -74 6 -429 -1 -530 -11 -172 -14
-210 -15 -210 -1 0 -3 -12 -5 -26 -5 -41 -36 -162 -46 -181 -8 -15 -25 -17
-123 -17 -131 1 -118 -11 -135 124 -25 195 -32 328 -32 560 0 105 3 208 5 231
14 139 19 170 29 176 6 4 14 5 17 3 4 -2 20 -7 36 -11z"/>
</g>
</svg>
